<svg width="107px" height="19px" viewBox="0 0 107 19" version="1.1" xmlns="http://www.w3.org/2000/svg" xmlns:xlink="http://www.w3.org/1999/xlink">
    <!-- Generator: Sketch 49.3 (51167) - http://www.bohemiancoding.com/sketch -->
    <desc>Created with Sketch.</desc>
    <defs></defs>
    <g id="Page-1" stroke="none" stroke-width="1" fill="none" fill-rule="evenodd">
        <g id="News-Dashboard-Landing" transform="translate(-120.000000, -27.000000)" fill="hsla(0, 0%, 0%, 0.87)">
            <g id="Navbar">
                <g id="Logo" transform="translate(120.000000, 27.000000)">
                    <path d="M37,17.7166667 L37,2.275 L41.9248634,2.275 C42.7855234,2.275 43.5864034,2.35370292 44.3275273,2.51111111 C45.0686512,2.66851931 45.7101521,2.93610922 46.2520492,3.31388889 C46.7939462,3.69166856 47.2163009,4.18356178 47.5191257,4.78958333 C47.8219505,5.39560488 47.9733607,6.14721774 47.9733607,7.04444444 C47.9733607,7.89444869 47.8219505,8.63425611 47.5191257,9.26388889 C47.2163009,9.89352167 46.7979307,10.4168961 46.2640027,10.8340278 C45.7300747,11.2511595 45.1005273,11.5581009 44.3753415,11.7548611 C43.6501558,11.9516214 42.8652137,12.05 42.0204918,12.05 L39.773224,12.05 L39.773224,17.7166667 L37,17.7166667 Z M39.773224,9.85416667 L41.8053279,9.85416667 C44.1004213,9.85416667 45.2479508,8.91760196 45.2479508,7.04444444 C45.2479508,6.06851364 44.949115,5.3956037 44.3514344,5.02569444 C43.7537538,4.65578519 42.8731843,4.47083333 41.7096995,4.47083333 L39.773224,4.47083333 L39.773224,9.85416667 Z M54.1653005,18 C52.9061868,18 51.989757,17.6025503 51.4159836,16.8076389 C50.8422102,16.0127275 50.5553279,14.8754704 50.5553279,13.3958333 L50.5553279,6.12361111 L53.3046448,6.12361111 L53.3046448,13.0416667 C53.3046448,14.0018567 53.448086,14.6787017 53.7349727,15.0722222 C54.0218594,15.4657427 54.4840587,15.6625 55.1215847,15.6625 C55.6316055,15.6625 56.0818514,15.5365753 56.4723361,15.2847222 C56.8628207,15.0328691 57.2811908,14.6236139 57.727459,14.0569444 L57.727459,6.12361111 L60.476776,6.12361111 L60.476776,17.7166667 L58.2295082,17.7166667 L58.0143443,16.0166667 L57.942623,16.0166667 C57.4326022,16.6148178 56.8787598,17.0949056 56.2810792,17.4569444 C55.6833987,17.8189833 54.9781461,18 54.1653005,18 Z M69.6571038,18 C69.1152068,18 68.5693334,17.8701402 68.0194672,17.6104167 C67.4696011,17.3506931 66.9476345,16.9768543 66.4535519,16.4888889 L66.3818306,16.4888889 L66.1427596,17.7166667 L63.9672131,17.7166667 L63.9672131,1.04722222 L66.7165301,1.04722222 L66.7165301,5.34444444 L66.6448087,7.28055556 C67.1388914,6.85555343 67.6767958,6.5092606 68.2585383,6.24166667 C68.8402807,5.97407274 69.4339678,5.84027778 70.0396175,5.84027778 C70.7727723,5.84027778 71.4262266,5.97800788 72,6.25347222 C72.5737734,6.52893656 73.0598796,6.92245115 73.4583333,7.43402778 C73.8567871,7.94560441 74.1596073,8.56342231 74.3668033,9.2875 C74.5739992,10.0115777 74.6775956,10.8222177 74.6775956,11.7194444 C74.6775956,12.7111161 74.5381389,13.5965239 74.2592213,14.3756944 C73.9803037,15.154865 73.6097473,15.8120344 73.147541,16.3472222 C72.6853347,16.8824101 72.1514147,17.2916653 71.545765,17.575 C70.9401154,17.8583348 70.3105679,18 69.6571038,18 Z M69.0833333,15.7569444 C69.8643026,15.7569444 70.5177569,15.422457 71.0437158,14.7534722 C71.5696748,14.0844874 71.8326503,13.0888955 71.8326503,11.7666667 C71.8326503,10.601846 71.6334264,9.69676249 71.2349727,9.05138889 C70.836519,8.40601529 70.1910336,8.08333333 69.2984973,8.08333333 C68.4697135,8.08333333 67.6090664,8.51619938 66.7165301,9.38194444 L66.7165301,14.7888889 C67.1309219,15.1509277 67.5413231,15.4027771 67.9477459,15.5444444 C68.3541687,15.6861118 68.7326941,15.7569444 69.0833333,15.7569444 Z M80.1045082,18 C79.116343,18 78.4230439,17.7087992 78.0245902,17.1263889 C77.6261364,16.5439786 77.4269126,15.7490791 77.4269126,14.7416667 L77.4269126,1.04722222 L80.1762295,1.04722222 L80.1762295,14.8833333 C80.1762295,15.2138905 80.2399811,15.4460641 80.3674863,15.5798611 C80.4949915,15.7136581 80.6304638,15.7805556 80.7739071,15.7805556 L80.9532104,15.7805556 C81.0089939,15.7805556 81.0926679,15.764815 81.204235,15.7333333 L81.5628415,17.7638889 C81.1962641,17.9212971 80.7101579,18 80.1045082,18 Z M83.9057377,17.7166667 L83.9057377,6.12361111 L86.6550546,6.12361111 L86.6550546,17.7166667 L83.9057377,17.7166667 Z M85.2923497,4.09305556 C84.7982671,4.09305556 84.3918504,3.95139031 84.0730874,3.66805556 C83.7543245,3.38472081 83.5949454,3.0148171 83.5949454,2.55833333 C83.5949454,2.10184957 83.7543245,1.72801072 84.0730874,1.43680556 C84.3918504,1.1456004 84.7982671,1 85.2923497,1 C85.7864323,1 86.192849,1.1456004 86.511612,1.43680556 C86.830375,1.72801072 86.9897541,2.10184957 86.9897541,2.55833333 C86.9897541,3.0148171 86.830375,3.38472081 86.511612,3.66805556 C86.192849,3.95139031 85.7864323,4.09305556 85.2923497,4.09305556 Z M93.4446721,18 C92.6318265,18 91.8309466,17.8465293 91.0420082,17.5395833 C90.2530698,17.2326374 89.5717242,16.8509282 88.9979508,16.3944444 L90.2889344,14.6472222 C90.8148933,15.0564835 91.3368599,15.3752303 91.8548497,15.6034722 C92.3728396,15.8317141 92.9346509,15.9458333 93.5403005,15.9458333 C94.1778265,15.9458333 94.6479948,15.8159735 94.9508197,15.55625 C95.2536445,15.2965265 95.4050546,14.9620391 95.4050546,14.5527778 C95.4050546,14.3166655 95.3333341,14.1081028 95.1898907,13.9270833 C95.0464474,13.7460639 94.8551925,13.5847229 94.6161202,13.4430556 C94.377048,13.3013882 94.1061035,13.1715284 93.8032787,13.0534722 C93.5004539,12.9354161 93.1976336,12.8134266 92.8948087,12.6875 C92.5122932,12.5458326 92.1218144,12.3805565 91.7233607,12.1916667 C91.3249069,12.0027768 90.9702884,11.7745384 90.6594945,11.5069444 C90.3487006,11.2393505 90.0936941,10.928474 89.8944672,10.5743056 C89.6952404,10.2201371 89.5956284,9.79907651 89.5956284,9.31111111 C89.5956284,8.28795785 89.9781383,7.45370693 90.7431694,6.80833333 C91.5082005,6.16295974 92.5521336,5.84027778 93.875,5.84027778 C94.6878456,5.84027778 95.4209894,5.98194303 96.0744536,6.26527778 C96.7279177,6.54861253 97.2937135,6.87129449 97.7718579,7.23333333 L96.5047814,8.88611111 C96.0903895,8.58703554 95.6720194,8.34699165 95.2496585,8.16597222 C94.8272975,7.9849528 94.3850205,7.89444444 93.9228142,7.89444444 C93.3331027,7.89444444 92.8987947,8.01643397 92.619877,8.26041667 C92.3409594,8.50439937 92.2015027,8.8074056 92.2015027,9.16944444 C92.2015027,9.40555674 92.2692388,9.60624917 92.4047131,9.77152778 C92.5401874,9.93680638 92.7194889,10.0824068 92.942623,10.2083333 C93.165757,10.3342599 93.4247481,10.4523143 93.7196038,10.5625 C94.0144596,10.6726857 94.3212643,10.7828698 94.6400273,10.8930556 C95.038481,11.0347229 95.4369288,11.1960639 95.8353825,11.3770833 C96.2338362,11.5581028 96.5964237,11.7824061 96.9231557,12.05 C97.2498878,12.3175939 97.5128633,12.644211 97.7120902,13.0298611 C97.911317,13.4155112 98.010929,13.8759232 98.010929,14.4111111 C98.010929,14.9148173 97.911317,15.3830997 97.7120902,15.8159722 C97.5128633,16.2488448 97.2219964,16.6266188 96.8394809,16.9493056 C96.4569653,17.2719924 95.978828,17.5277768 95.4050546,17.7166667 C94.8312813,17.9055565 94.177827,18 93.4446721,18 Z M104.60929,18 C103.923949,18 103.3462,17.8976862 102.876025,17.6930556 C102.405849,17.4884249 102.023339,17.2011593 101.728484,16.83125 C101.433628,16.4613407 101.218466,16.0206044 101.082992,15.5090278 C100.947518,14.9974511 100.879781,14.426855 100.879781,13.7972222 L100.879781,8.27222222 L99.2062842,8.27222222 L99.2062842,6.24166667 L101.023224,6.12361111 L101.357923,2.95972222 L103.653005,2.95972222 L103.653005,6.12361111 L106.641393,6.12361111 L106.641393,8.27222222 L103.653005,8.27222222 L103.653005,13.7972222 C103.653005,15.1509327 104.202863,15.8277778 105.302596,15.8277778 C105.509792,15.8277778 105.720969,15.8041669 105.936134,15.7569444 C106.151299,15.709722 106.346538,15.6467597 106.521858,15.5680556 L107,17.575 C106.681237,17.6851857 106.31865,17.7835644 105.912227,17.8701389 C105.505804,17.9567134 105.071496,18 104.60929,18 Z" id="Publist"></path>
                    <path d="M0.531934789,0.000627973777 C0.229443563,0.0283784147 -0.00130447255,0.276222132 5.55015177e-06,0.571966835 L5.55015177e-06,3.42866114 C3.80416655e-05,3.74418978 0.262808341,3.99996837 0.586961951,4 L26.4130436,4 C26.7371972,3.99996837 26.9999675,3.74418978 27,3.42866114 L27,0.571966835 C26.9999675,0.256438196 26.7371972,0.000659600767 26.4130436,0.000627973777 L0.586961951,0.000627973777 C0.568629649,-0.000209324592 0.550267091,-0.000209324592 0.531934789,0.000627973777 Z M1,1 L26,1 L26,3 L1,3 L1,1 Z M5.55022877,5.00062797 C5.23733445,5.02837841 4.99865066,5.27622213 5.00000574,5.57196683 L5.00000574,8.42866114 C5.00003935,8.74418978 5.27184669,8.99996837 5.60714839,9 L21.3928573,9 C21.7281591,8.99996837 21.9999664,8.74418978 22,8.42866114 L22,5.57196683 C21.9999664,5.2564382 21.7281591,5.0006596 21.3928573,5.00062797 L5.60714839,5.00062797 C5.58818562,4.99979068 5.56919155,4.99979068 5.55022877,5.00062797 Z M6,6 L21,6 L21,8 L6,8 L6,6 Z M9.50977064,10.000628 C9.21988333,10.0283784 8.99874988,10.2762221 9.00000532,10.5719668 L9.00000532,13.4286611 C9.00003646,13.7441898 9.2518579,13.9999684 9.56250499,14 L17.4375003,14 C17.7481474,13.9999684 17.9999689,13.7441898 18,13.4286611 L18,10.5719668 C17.9999689,10.2564382 17.7481474,10.0006596 17.4375003,10.000628 L9.56250499,10.000628 C9.54493654,9.99979068 9.52733909,9.99979068 9.50977064,10.000628 Z M10,11 L17,11 L17,13 L10,13 L10,11 Z M11.5034769,15.000628 C11.2171686,15.0283784 10.9987653,15.2762221 11.0000053,15.5719668 L11.0000053,18.4286611 C11.000036,18.7441898 11.2487484,18.9999684 11.5555602,19 L15.444445,19 C15.7512568,18.9999684 15.9999692,18.7441898 16,18.4286611 L16,15.5719668 C15.9999692,15.2564382 15.7512568,15.0006596 15.444445,15.000628 L11.5555602,15.000628 C11.5382087,14.9997907 11.5208285,14.9997907 11.5034769,15.000628 Z M12,16 L15,16 L15,18 L12,18 L12,16 Z" id="Shape" fill-rule="nonzero"></path>
                </g>
            </g>
        </g>
    </g>
</svg>
